<svg width="167" height="32" viewBox="0 0 167 32" fill="none" xmlns="http://www.w3.org/2000/svg">
<g clip-path="url(#clip0_1_34)">
<path d="M4 22C3.45 22 2.97934 21.8043 2.588 21.413C2.19667 21.0217 2.00067 20.5507 2 20V9C2 8.45 2.196 7.97933 2.588 7.588C2.98 7.19667 3.45067 7.00067 4 7H18.35C18.6833 7 18.9127 7.15433 19.038 7.463C19.1633 7.77167 19.109 8.04233 18.875 8.275C18.7583 8.39167 18.646 8.51267 18.538 8.638C18.43 8.76333 18.309 8.884 18.175 9L15.575 11.575C15.3917 11.7583 15.25 11.975 15.15 12.225C15.05 12.475 15 12.7333 15 13V15.975C15 16.2417 15.05 16.5 15.15 16.75C15.25 17 15.3917 17.2167 15.575 17.4L18.175 20C18.2917 20.1333 18.4127 20.2543 18.538 20.363C18.6633 20.4717 18.784 20.5923 18.9 20.725C19.1333 20.9583 19.1877 21.2293 19.063 21.538C18.9383 21.8467 18.709 22.0007 18.375 22H4ZM2 25C1.71667 25 1.47934 24.904 1.288 24.712C1.09667 24.52 1.00067 24.2827 1 24C0.999337 23.7173 1.09534 23.48 1.288 23.288C1.48067 23.096 1.718 23 2 23H22C22.2833 23 22.521 23.096 22.713 23.288C22.905 23.48 23.0007 23.7173 23 24C22.9993 24.2827 22.9033 24.5203 22.712 24.713C22.5207 24.9057 22.2833 25.0013 22 25H2ZM20.175 19.1C19.9583 18.9667 19.8083 18.7793 19.725 18.538C19.6417 18.2967 19.6917 18.0673 19.875 17.85C20.2583 17.3667 20.5417 16.846 20.725 16.288C20.9083 15.73 21 15.134 21 14.5C21 13.866 20.9083 13.2703 20.725 12.713C20.5417 12.1557 20.2583 11.6347 19.875 11.15C19.6917 10.9333 19.6417 10.7043 19.725 10.463C19.8083 10.2217 19.9583 10.034 20.175 9.9C20.3917 9.766 20.6377 9.70767 20.913 9.725C21.1883 9.74233 21.4423 9.91733 21.675 10.25C22.1083 10.8667 22.4377 11.5377 22.663 12.263C22.8883 12.9883 23.0007 13.734 23 14.5C22.9993 15.266 22.887 16.012 22.663 16.738C22.439 17.464 22.1097 18.1347 21.675 18.75C21.4417 19.0833 21.1873 19.2583 20.912 19.275C20.6367 19.2917 20.391 19.2333 20.175 19.1ZM17.75 16.65C17.5167 16.5333 17.3457 16.354 17.237 16.112C17.1283 15.87 17.1493 15.6077 17.3 15.325C17.3833 15.1917 17.4377 15.0583 17.463 14.925C17.4883 14.7917 17.5007 14.65 17.5 14.5C17.4993 14.35 17.487 14.2083 17.463 14.075C17.439 13.9417 17.3847 13.8083 17.3 13.675C17.15 13.3917 17.1293 13.129 17.238 12.887C17.3467 12.645 17.5173 12.466 17.75 12.35C17.9827 12.234 18.2287 12.2047 18.488 12.262C18.7473 12.3193 18.9597 12.507 19.125 12.825C19.2583 13.0917 19.3543 13.3667 19.413 13.65C19.4717 13.9333 19.5007 14.2167 19.5 14.5C19.4993 14.7833 19.47 15.0667 19.412 15.35C19.354 15.6333 19.2583 15.9083 19.125 16.175C18.9583 16.4917 18.7457 16.679 18.487 16.737C18.2283 16.795 17.9827 16.766 17.75 16.65Z" fill="white"/>
</g>
<path d="M31.7642 23V8.45455H37.5028C38.6061 8.45455 39.5459 8.66525 40.3224 9.08665C41.099 9.50331 41.6908 10.0833 42.098 10.8267C42.5099 11.5653 42.7159 12.4176 42.7159 13.3835C42.7159 14.3494 42.5076 15.2017 42.0909 15.9403C41.6742 16.679 41.0705 17.2543 40.2798 17.6662C39.4938 18.0781 38.5421 18.2841 37.4247 18.2841H33.767V15.8196H36.9276C37.5194 15.8196 38.0071 15.7178 38.3906 15.5142C38.7789 15.3059 39.0677 15.0194 39.2571 14.6548C39.4512 14.2855 39.5483 13.8617 39.5483 13.3835C39.5483 12.9006 39.4512 12.4792 39.2571 12.1193C39.0677 11.7547 38.7789 11.473 38.3906 11.2741C38.0024 11.0705 37.5099 10.9688 36.9134 10.9688H34.8395V23H31.7642ZM58.0799 15.7273C58.0799 17.3134 57.7792 18.6629 57.1779 19.7756C56.5813 20.8883 55.7669 21.7382 54.7347 22.3253C53.7073 22.9077 52.552 23.1989 51.2688 23.1989C49.9762 23.1989 48.8162 22.9053 47.7887 22.3182C46.7612 21.7311 45.9492 20.8812 45.3526 19.7685C44.756 18.6558 44.4577 17.3087 44.4577 15.7273C44.4577 14.1411 44.756 12.7917 45.3526 11.679C45.9492 10.5663 46.7612 9.71875 47.7887 9.13636C48.8162 8.54924 49.9762 8.25568 51.2688 8.25568C52.552 8.25568 53.7073 8.54924 54.7347 9.13636C55.7669 9.71875 56.5813 10.5663 57.1779 11.679C57.7792 12.7917 58.0799 14.1411 58.0799 15.7273ZM54.962 15.7273C54.962 14.6998 54.8081 13.8333 54.5004 13.1278C54.1973 12.4223 53.7688 11.8873 53.2148 11.5227C52.6609 11.1581 52.0122 10.9759 51.2688 10.9759C50.5254 10.9759 49.8768 11.1581 49.3228 11.5227C48.7688 11.8873 48.3379 12.4223 48.0302 13.1278C47.7272 13.8333 47.5756 14.6998 47.5756 15.7273C47.5756 16.7547 47.7272 17.6212 48.0302 18.3267C48.3379 19.0322 48.7688 19.5672 49.3228 19.9318C49.8768 20.2964 50.5254 20.4787 51.2688 20.4787C52.0122 20.4787 52.6609 20.2964 53.2148 19.9318C53.7688 19.5672 54.1973 19.0322 54.5004 18.3267C54.8081 17.6212 54.962 16.7547 54.962 15.7273ZM68.2486 12.6378C68.1918 12.0649 67.9479 11.6198 67.517 11.3026C67.0862 10.9853 66.5014 10.8267 65.7628 10.8267C65.2609 10.8267 64.8371 10.8977 64.4915 11.0398C64.1458 11.1771 63.8807 11.3688 63.696 11.6151C63.5161 11.8613 63.4261 12.1406 63.4261 12.4531C63.4167 12.7135 63.4711 12.9408 63.5895 13.1349C63.7126 13.3291 63.8807 13.4972 64.0938 13.6392C64.3068 13.7765 64.553 13.8973 64.8324 14.0014C65.1117 14.1009 65.41 14.1861 65.7273 14.2571L67.0341 14.5696C67.6686 14.7116 68.2509 14.901 68.7812 15.1378C69.3116 15.3745 69.7708 15.6657 70.1591 16.0114C70.5473 16.357 70.848 16.7642 71.0611 17.233C71.2789 17.7017 71.3902 18.2391 71.3949 18.8452C71.3902 19.7353 71.1629 20.5071 70.7131 21.1605C70.268 21.8092 69.6241 22.3134 68.7812 22.6733C67.9432 23.0284 66.9323 23.206 65.7486 23.206C64.5743 23.206 63.5516 23.026 62.6804 22.6662C61.8139 22.3063 61.1368 21.7737 60.6491 21.0682C60.1662 20.358 59.9129 19.4796 59.8892 18.4332H62.8651C62.8982 18.9209 63.0379 19.3281 63.2841 19.6548C63.535 19.9768 63.8688 20.2206 64.2855 20.3864C64.7069 20.5473 65.1828 20.6278 65.7131 20.6278C66.2339 20.6278 66.6861 20.5521 67.0696 20.4006C67.4579 20.2491 67.7585 20.0384 67.9716 19.7685C68.1847 19.4986 68.2912 19.1884 68.2912 18.8381C68.2912 18.5114 68.1941 18.2367 68 18.0142C67.8106 17.7917 67.5313 17.6023 67.1619 17.446C66.7973 17.2898 66.3499 17.1477 65.8196 17.0199L64.2358 16.6222C63.0095 16.3239 62.0412 15.8575 61.331 15.223C60.6207 14.5885 60.268 13.7339 60.2727 12.6591C60.268 11.7784 60.5024 11.009 60.9759 10.3509C61.4541 9.69271 62.1098 9.17898 62.9432 8.80966C63.7765 8.44034 64.7235 8.25568 65.7841 8.25568C66.8636 8.25568 67.8059 8.44034 68.6108 8.80966C69.4205 9.17898 70.0502 9.69271 70.5 10.3509C70.9498 11.009 71.1818 11.7713 71.196 12.6378H68.2486ZM85.983 12.6378C85.9261 12.0649 85.6823 11.6198 85.2514 11.3026C84.8205 10.9853 84.2358 10.8267 83.4972 10.8267C82.9953 10.8267 82.5715 10.8977 82.2259 11.0398C81.8802 11.1771 81.6151 11.3688 81.4304 11.6151C81.2505 11.8613 81.1605 12.1406 81.1605 12.4531C81.151 12.7135 81.2055 12.9408 81.3239 13.1349C81.447 13.3291 81.6151 13.4972 81.8281 13.6392C82.0412 13.7765 82.2874 13.8973 82.5668 14.0014C82.8461 14.1009 83.1444 14.1861 83.4616 14.2571L84.7685 14.5696C85.4029 14.7116 85.9853 14.901 86.5156 15.1378C87.0459 15.3745 87.5052 15.6657 87.8935 16.0114C88.2817 16.357 88.5824 16.7642 88.7955 17.233C89.0133 17.7017 89.1245 18.2391 89.1293 18.8452C89.1245 19.7353 88.8973 20.5071 88.4474 21.1605C88.0024 21.8092 87.3584 22.3134 86.5156 22.6733C85.6776 23.0284 84.6667 23.206 83.483 23.206C82.3087 23.206 81.286 23.026 80.4148 22.6662C79.5483 22.3063 78.8712 21.7737 78.3835 21.0682C77.9006 20.358 77.6473 19.4796 77.6236 18.4332H80.5994C80.6326 18.9209 80.7723 19.3281 81.0185 19.6548C81.2694 19.9768 81.6032 20.2206 82.0199 20.3864C82.4413 20.5473 82.9171 20.6278 83.4474 20.6278C83.9683 20.6278 84.4205 20.5521 84.804 20.4006C85.1922 20.2491 85.4929 20.0384 85.706 19.7685C85.919 19.4986 86.0256 19.1884 86.0256 18.8381C86.0256 18.5114 85.9285 18.2367 85.7344 18.0142C85.545 17.7917 85.2656 17.6023 84.8963 17.446C84.5317 17.2898 84.0843 17.1477 83.554 17.0199L81.9702 16.6222C80.7438 16.3239 79.7756 15.8575 79.0653 15.223C78.3551 14.5885 78.0024 13.7339 78.0071 12.6591C78.0024 11.7784 78.2367 11.009 78.7102 10.3509C79.1884 9.69271 79.8442 9.17898 80.6776 8.80966C81.5109 8.44034 82.4579 8.25568 83.5185 8.25568C84.598 8.25568 85.5402 8.44034 86.3452 8.80966C87.1548 9.17898 87.7846 9.69271 88.2344 10.3509C88.6842 11.009 88.9162 11.7713 88.9304 12.6378H85.983ZM90.3455 8.45455H93.7901L97.1069 14.7188H97.2489L100.566 8.45455H104.01L98.7049 17.858V23H95.6509V17.858L90.3455 8.45455ZM113.581 12.6378C113.524 12.0649 113.28 11.6198 112.849 11.3026C112.418 10.9853 111.833 10.8267 111.095 10.8267C110.593 10.8267 110.169 10.8977 109.824 11.0398C109.478 11.1771 109.213 11.3688 109.028 11.6151C108.848 11.8613 108.758 12.1406 108.758 12.4531C108.749 12.7135 108.803 12.9408 108.922 13.1349C109.045 13.3291 109.213 13.4972 109.426 13.6392C109.639 13.7765 109.885 13.8973 110.164 14.0014C110.444 14.1009 110.742 14.1861 111.059 14.2571L112.366 14.5696C113.001 14.7116 113.583 14.901 114.113 15.1378C114.644 15.3745 115.103 15.6657 115.491 16.0114C115.879 16.357 116.18 16.7642 116.393 17.233C116.611 17.7017 116.722 18.2391 116.727 18.8452C116.722 19.7353 116.495 20.5071 116.045 21.1605C115.6 21.8092 114.956 22.3134 114.113 22.6733C113.275 23.0284 112.264 23.206 111.081 23.206C109.906 23.206 108.884 23.026 108.012 22.6662C107.146 22.3063 106.469 21.7737 105.981 21.0682C105.498 20.358 105.245 19.4796 105.221 18.4332H108.197C108.23 18.9209 108.37 19.3281 108.616 19.6548C108.867 19.9768 109.201 20.2206 109.618 20.3864C110.039 20.5473 110.515 20.6278 111.045 20.6278C111.566 20.6278 112.018 20.5521 112.402 20.4006C112.79 20.2491 113.091 20.0384 113.304 19.7685C113.517 19.4986 113.623 19.1884 113.623 18.8381C113.623 18.5114 113.526 18.2367 113.332 18.0142C113.143 17.7917 112.863 17.6023 112.494 17.446C112.129 17.2898 111.682 17.1477 111.152 17.0199L109.568 16.6222C108.342 16.3239 107.373 15.8575 106.663 15.223C105.953 14.5885 105.6 13.7339 105.605 12.6591C105.6 11.7784 105.834 11.009 106.308 10.3509C106.786 9.69271 107.442 9.17898 108.275 8.80966C109.109 8.44034 110.056 8.25568 111.116 8.25568C112.196 8.25568 113.138 8.44034 113.943 8.80966C114.752 9.17898 115.382 9.69271 115.832 10.3509C116.282 11.009 116.514 11.7713 116.528 12.6378H113.581ZM118.241 10.9901V8.45455H130.188V10.9901H125.734V23H122.695V10.9901H118.241ZM132.155 23V8.45455H141.956V10.9901H135.23V14.456H141.452V16.9915H135.23V20.4645H141.984V23H132.155ZM144.401 8.45455H148.194L152.199 18.2273H152.37L156.375 8.45455H160.168V23H157.185V13.5327H157.064L153.3 22.929H151.269L147.505 13.4972H147.384V23H144.401V8.45455Z" fill="white"/>
<defs>
<clipPath id="clip0_1_34">
<rect width="24" height="24" fill="white" transform="translate(0 4)"/>
</clipPath>
</defs>
</svg>
